<mxfile host="app.diagrams.net" modified="2023-11-23T19:14:09.745Z" agent="Mozilla/5.0 (Windows NT 10.0; Win64; x64) AppleWebKit/537.36 (KHTML, like Gecko) Chrome/119.0.0.0 Safari/537.36 Edg/119.0.0.0" etag="8c951068rBSGBwrTF4TK" version="22.1.3" type="device">
  <diagram name="Page-1" id="WWQ6jAe2l4_3MHRozBaa">
    <mxGraphModel dx="1386" dy="777" grid="1" gridSize="10" guides="1" tooltips="1" connect="1" arrows="1" fold="1" page="1" pageScale="1" pageWidth="827" pageHeight="1169" math="0" shadow="0">
      <root>
        <mxCell id="0" />
        <mxCell id="1" parent="0" />
        <mxCell id="dQQLBpKWCLkacfobOt-K-6" value="&lt;div style=&quot;background-color:#ffffff;color:#080808&quot;&gt;&lt;pre style=&quot;font-family:&#39;JetBrains Mono&#39;,monospace;font-size:10.5pt;&quot;&gt;&lt;span style=&quot;color:#00627a;&quot;&gt;addStudCourse&lt;/span&gt;&lt;/pre&gt;&lt;/div&gt;" style="swimlane;fontStyle=0;childLayout=stackLayout;horizontal=1;startSize=30;horizontalStack=0;resizeParent=1;resizeParentMax=0;resizeLast=0;collapsible=1;marginBottom=0;whiteSpace=wrap;html=1;" parent="1" vertex="1">
          <mxGeometry x="200" y="310" width="470" height="490" as="geometry" />
        </mxCell>
        <mxCell id="dQQLBpKWCLkacfobOt-K-7" value="- users: List&amp;lt;User&amp;gt; " style="text;strokeColor=none;fillColor=none;align=left;verticalAlign=middle;spacingLeft=4;spacingRight=4;overflow=hidden;points=[[0,0.5],[1,0.5]];portConstraint=eastwest;rotatable=0;whiteSpace=wrap;html=1;" parent="dQQLBpKWCLkacfobOt-K-6" vertex="1">
          <mxGeometry y="30" width="470" height="30" as="geometry" />
        </mxCell>
        <mxCell id="dQQLBpKWCLkacfobOt-K-30" value="- courses: List&amp;lt;Course&amp;gt; " style="text;strokeColor=none;fillColor=none;align=left;verticalAlign=middle;spacingLeft=4;spacingRight=4;overflow=hidden;points=[[0,0.5],[1,0.5]];portConstraint=eastwest;rotatable=0;whiteSpace=wrap;html=1;" parent="dQQLBpKWCLkacfobOt-K-6" vertex="1">
          <mxGeometry y="60" width="470" height="30" as="geometry" />
        </mxCell>
        <mxCell id="dsCds1qEzEID8eLLVtPn-3" value="&lt;div style=&quot;background-color:#ffffff;color:#080808&quot;&gt;&lt;pre style=&quot;font-family:&#39;JetBrains Mono&#39;,monospace;font-size:10.5pt;&quot;&gt;StudId:String @Pattern(regexp = &lt;span style=&quot;font-size: 10.5pt; color: rgb(6, 125, 23);&quot;&gt;&quot;&lt;/span&gt;&lt;span style=&quot;font-size: 10.5pt; color: rgb(0, 55, 166); background-color: rgb(235, 235, 235);&quot;&gt;\\&lt;/span&gt;&lt;span style=&quot;font-size: 10.5pt; color: rgb(6, 125, 23); background-color: rgb(235, 235, 235);&quot;&gt;d{10}&lt;/span&gt;&lt;span style=&quot;font-size: 10.5pt; color: rgb(6, 125, 23);&quot;&gt;&quot;&lt;/span&gt;&lt;span style=&quot;font-size: 10.5pt;&quot;&gt;)&lt;/span&gt;&lt;/pre&gt;&lt;/div&gt;" style="text;strokeColor=none;fillColor=none;align=left;verticalAlign=middle;spacingLeft=4;spacingRight=4;overflow=hidden;points=[[0,0.5],[1,0.5]];portConstraint=eastwest;rotatable=0;whiteSpace=wrap;html=1;" vertex="1" parent="dQQLBpKWCLkacfobOt-K-6">
          <mxGeometry y="90" width="470" height="40" as="geometry" />
        </mxCell>
        <mxCell id="dsCds1qEzEID8eLLVtPn-8" value="&lt;div style=&quot;background-color:#ffffff;color:#080808&quot;&gt;&lt;pre style=&quot;font-family:&#39;JetBrains Mono&#39;,monospace;font-size:10.5pt;&quot;&gt;StudName:String @Size(&lt;span style=&quot;font-size: 10.5pt;&quot;&gt;) &lt;/span&gt;@Pattern&lt;span style=&quot;font-size: 10.5pt; white-space: normal;&quot;&gt;(&lt;/span&gt;&lt;span style=&quot;font-size: 10.5pt; white-space: normal;&quot;&gt;)&lt;/span&gt;&lt;/pre&gt;&lt;/div&gt;" style="text;strokeColor=none;fillColor=none;align=left;verticalAlign=middle;spacingLeft=4;spacingRight=4;overflow=hidden;points=[[0,0.5],[1,0.5]];portConstraint=eastwest;rotatable=0;whiteSpace=wrap;html=1;" vertex="1" parent="dQQLBpKWCLkacfobOt-K-6">
          <mxGeometry y="130" width="470" height="40" as="geometry" />
        </mxCell>
        <mxCell id="dsCds1qEzEID8eLLVtPn-10" value="&lt;div style=&quot;background-color:#ffffff;color:#080808&quot;&gt;&lt;pre style=&quot;font-family:&#39;JetBrains Mono&#39;,monospace;font-size:10.5pt;&quot;&gt;StudEmail:String @Notnull @Email.&lt;/pre&gt;&lt;/div&gt;" style="text;strokeColor=none;fillColor=none;align=left;verticalAlign=middle;spacingLeft=4;spacingRight=4;overflow=hidden;points=[[0,0.5],[1,0.5]];portConstraint=eastwest;rotatable=0;whiteSpace=wrap;html=1;" vertex="1" parent="dQQLBpKWCLkacfobOt-K-6">
          <mxGeometry y="170" width="470" height="30" as="geometry" />
        </mxCell>
        <mxCell id="dsCds1qEzEID8eLLVtPn-9" value="&lt;div style=&quot;background-color:#ffffff;color:#080808&quot;&gt;&lt;pre style=&quot;font-family:&#39;JetBrains Mono&#39;,monospace;font-size:10.5pt;&quot;&gt;studAge:Int @Digits @Min&lt;/pre&gt;&lt;/div&gt;" style="text;strokeColor=none;fillColor=none;align=left;verticalAlign=middle;spacingLeft=4;spacingRight=4;overflow=hidden;points=[[0,0.5],[1,0.5]];portConstraint=eastwest;rotatable=0;whiteSpace=wrap;html=1;" vertex="1" parent="dQQLBpKWCLkacfobOt-K-6">
          <mxGeometry y="200" width="470" height="30" as="geometry" />
        </mxCell>
        <mxCell id="dsCds1qEzEID8eLLVtPn-11" value="&lt;div style=&quot;background-color:#ffffff;color:#080808&quot;&gt;&lt;pre style=&quot;font-family:&#39;JetBrains Mono&#39;,monospace;font-size:10.5pt;&quot;&gt;&lt;div&gt;&lt;pre style=&quot;font-family:&#39;JetBrains Mono&#39;,monospace;font-size:10.5pt;&quot;&gt;studPhone:String @NotNull @Pattern&lt;/pre&gt;&lt;/div&gt;&lt;/pre&gt;&lt;/div&gt;" style="text;strokeColor=none;fillColor=none;align=left;verticalAlign=middle;spacingLeft=4;spacingRight=4;overflow=hidden;points=[[0,0.5],[1,0.5]];portConstraint=eastwest;rotatable=0;whiteSpace=wrap;html=1;" vertex="1" parent="dQQLBpKWCLkacfobOt-K-6">
          <mxGeometry y="230" width="470" height="30" as="geometry" />
        </mxCell>
        <mxCell id="dsCds1qEzEID8eLLVtPn-12" value="&lt;div style=&quot;background-color:#ffffff;color:#080808&quot;&gt;&lt;pre style=&quot;font-family:&#39;JetBrains Mono&#39;,monospace;font-size:10.5pt;&quot;&gt;&lt;div&gt;&lt;pre style=&quot;font-family:&#39;JetBrains Mono&#39;,monospace;font-size:10.5pt;&quot;&gt;Set&amp;lt;&lt;span style=&quot;color:#000000;&quot;&gt;Courses&lt;/span&gt;&amp;gt; &lt;span style=&quot;color:#871094;&quot;&gt;courses&lt;/span&gt;&lt;/pre&gt;&lt;/div&gt;&lt;/pre&gt;&lt;/div&gt;" style="text;strokeColor=none;fillColor=none;align=left;verticalAlign=middle;spacingLeft=4;spacingRight=4;overflow=hidden;points=[[0,0.5],[1,0.5]];portConstraint=eastwest;rotatable=0;whiteSpace=wrap;html=1;" vertex="1" parent="dQQLBpKWCLkacfobOt-K-6">
          <mxGeometry y="260" width="470" height="30" as="geometry" />
        </mxCell>
        <mxCell id="dsCds1qEzEID8eLLVtPn-16" value="&amp;nbsp;Student&amp;nbsp;&amp;nbsp;CRUD" style="swimlane;whiteSpace=wrap;html=1;" vertex="1" parent="dQQLBpKWCLkacfobOt-K-6">
          <mxGeometry y="290" width="470" height="200" as="geometry" />
        </mxCell>
        <mxCell id="dsCds1qEzEID8eLLVtPn-19" value="&lt;div style=&quot;background-color:#ffffff;color:#080808&quot;&gt;&lt;pre style=&quot;font-family:&#39;JetBrains Mono&#39;,monospace;font-size:10.5pt;&quot;&gt;- addStudCourse&lt;/pre&gt;&lt;/div&gt;" style="text;html=1;align=center;verticalAlign=middle;resizable=0;points=[];autosize=1;strokeColor=none;fillColor=none;" vertex="1" parent="dsCds1qEzEID8eLLVtPn-16">
          <mxGeometry y="17" width="140" height="60" as="geometry" />
        </mxCell>
        <mxCell id="dsCds1qEzEID8eLLVtPn-20" value="-&amp;nbsp; &amp;nbsp; removeCourseFromStudent" style="text;html=1;strokeColor=none;fillColor=none;align=center;verticalAlign=middle;whiteSpace=wrap;rounded=0;" vertex="1" parent="dsCds1qEzEID8eLLVtPn-16">
          <mxGeometry x="-1" y="57" width="197" height="30" as="geometry" />
        </mxCell>
        <mxCell id="dsCds1qEzEID8eLLVtPn-21" value="-&amp;nbsp;&amp;nbsp;viewStudentCourses" style="text;html=1;strokeColor=none;fillColor=none;align=center;verticalAlign=middle;whiteSpace=wrap;rounded=0;" vertex="1" parent="dsCds1qEzEID8eLLVtPn-16">
          <mxGeometry x="43" y="85" width="60" height="30" as="geometry" />
        </mxCell>
        <mxCell id="dsCds1qEzEID8eLLVtPn-22" value="-&amp;nbsp;searchNewStartCourses" style="text;html=1;strokeColor=none;fillColor=none;align=center;verticalAlign=middle;whiteSpace=wrap;rounded=0;" vertex="1" parent="dsCds1qEzEID8eLLVtPn-16">
          <mxGeometry x="48" y="110" width="60" height="30" as="geometry" />
        </mxCell>
        <mxCell id="dQQLBpKWCLkacfobOt-K-10" value="Course" style="swimlane;fontStyle=0;childLayout=stackLayout;horizontal=1;startSize=30;horizontalStack=0;resizeParent=1;resizeParentMax=0;resizeLast=0;collapsible=1;marginBottom=0;whiteSpace=wrap;html=1;" parent="1" vertex="1">
          <mxGeometry x="340" width="229" height="230" as="geometry" />
        </mxCell>
        <mxCell id="dQQLBpKWCLkacfobOt-K-11" value="StudID: String" style="text;strokeColor=none;fillColor=none;align=left;verticalAlign=middle;spacingLeft=4;spacingRight=4;overflow=hidden;points=[[0,0.5],[1,0.5]];portConstraint=eastwest;rotatable=0;whiteSpace=wrap;html=1;" parent="dQQLBpKWCLkacfobOt-K-10" vertex="1">
          <mxGeometry y="30" width="229" height="30" as="geometry" />
        </mxCell>
        <mxCell id="dsCds1qEzEID8eLLVtPn-2" value="&lt;div style=&quot;background-color:#ffffff;color:#080808&quot;&gt;&lt;pre style=&quot;font-family:&#39;JetBrains Mono&#39;,monospace;font-size:10.5pt;&quot;&gt;ArrayList&amp;lt;Courses&amp;gt;&lt;/pre&gt;&lt;/div&gt;" style="text;strokeColor=none;fillColor=none;align=left;verticalAlign=middle;spacingLeft=4;spacingRight=4;overflow=hidden;points=[[0,0.5],[1,0.5]];portConstraint=eastwest;rotatable=0;whiteSpace=wrap;html=1;" vertex="1" parent="dQQLBpKWCLkacfobOt-K-10">
          <mxGeometry y="60" width="229" height="40" as="geometry" />
        </mxCell>
        <mxCell id="dQQLBpKWCLkacfobOt-K-12" value="CourseName:String" style="text;strokeColor=none;fillColor=none;align=left;verticalAlign=middle;spacingLeft=4;spacingRight=4;overflow=hidden;points=[[0,0.5],[1,0.5]];portConstraint=eastwest;rotatable=0;whiteSpace=wrap;html=1;" parent="dQQLBpKWCLkacfobOt-K-10" vertex="1">
          <mxGeometry y="100" width="229" height="30" as="geometry" />
        </mxCell>
        <mxCell id="dQQLBpKWCLkacfobOt-K-20" value="&lt;div style=&quot;background-color:#ffffff;color:#080808&quot;&gt;&lt;pre style=&quot;font-family:&#39;JetBrains Mono&#39;,monospace;font-size:10.5pt;&quot;&gt;staetCourse:LocalDate&lt;/pre&gt;&lt;/div&gt;" style="text;strokeColor=none;fillColor=none;align=left;verticalAlign=middle;spacingLeft=4;spacingRight=4;overflow=hidden;points=[[0,0.5],[1,0.5]];portConstraint=eastwest;rotatable=0;whiteSpace=wrap;html=1;" parent="dQQLBpKWCLkacfobOt-K-10" vertex="1">
          <mxGeometry y="130" width="229" height="30" as="geometry" />
        </mxCell>
        <mxCell id="dQQLBpKWCLkacfobOt-K-21" value="&lt;div style=&quot;background-color:#ffffff;color:#080808&quot;&gt;&lt;pre style=&quot;font-family:&#39;JetBrains Mono&#39;,monospace;font-size:10.5pt;&quot;&gt;endCourse&lt;/pre&gt;&lt;/div&gt;" style="text;strokeColor=none;fillColor=none;align=left;verticalAlign=middle;spacingLeft=4;spacingRight=4;overflow=hidden;points=[[0,0.5],[1,0.5]];portConstraint=eastwest;rotatable=0;whiteSpace=wrap;html=1;" parent="dQQLBpKWCLkacfobOt-K-10" vertex="1">
          <mxGeometry y="160" width="229" height="40" as="geometry" />
        </mxCell>
        <mxCell id="dsCds1qEzEID8eLLVtPn-25" value="CRUD" style="text;html=1;strokeColor=none;fillColor=none;align=center;verticalAlign=middle;whiteSpace=wrap;rounded=0;" vertex="1" parent="dQQLBpKWCLkacfobOt-K-10">
          <mxGeometry y="200" width="229" height="30" as="geometry" />
        </mxCell>
        <mxCell id="dsCds1qEzEID8eLLVtPn-24" style="edgeStyle=orthogonalEdgeStyle;rounded=0;orthogonalLoop=1;jettySize=auto;html=1;exitX=0.463;exitY=0.995;exitDx=0;exitDy=0;entryX=0.472;entryY=0.006;entryDx=0;entryDy=0;entryPerimeter=0;exitPerimeter=0;" edge="1" parent="1" source="dsCds1qEzEID8eLLVtPn-25" target="dQQLBpKWCLkacfobOt-K-6">
          <mxGeometry relative="1" as="geometry">
            <mxPoint x="454.5" y="400" as="sourcePoint" />
          </mxGeometry>
        </mxCell>
      </root>
    </mxGraphModel>
  </diagram>
</mxfile>
